<svg xmlns="http://www.w3.org/2000/svg" version="1.1" xmlns:xlink="http://www.w3.org/1999/xlink" xmlns:svgjs="http://svgjs.com/svgjs" width="1500" height="400" preserveAspectRatio="none" viewBox="0 0 1500 400"><g mask="url(&quot;#SvgjsMask1025&quot;)" fill="none"><rect width="1500" height="400" x="0" y="0" fill="rgba(2, 71, 94, 1)"></rect><path d="M0,378.836C81.677,374.106,171.478,418.153,240.424,374.107C309.378,330.056,318.604,235.094,345.8,157.922C370.593,87.568,396.489,18.087,392.129,-56.38C387.505,-135.359,369.741,-215.779,320.303,-277.544C269.945,-340.458,190.178,-365.164,117.353,-399.669C30.726,-440.713,-56.26,-531.22,-146.426,-498.68C-237.877,-465.676,-248.409,-339.595,-291.117,-252.254C-322.939,-187.177,-343.056,-121.579,-364.636,-52.427C-390.801,31.416,-451.15,111.412,-431.308,196.972C-410.663,285.994,-343.216,367.526,-259.012,403.031C-177.459,437.418,-88.358,383.953,0,378.836" fill="#02394b"></path><path d="M1500 722.4390000000001C1578.861 738.2470000000001 1664.219 804.248 1732.98 762.524 1801.276 721.082 1778.7069999999999 614.504 1803.19 538.462 1824.195 473.223 1866.374 415.816 1866.673 347.28 1867 272.315 1852.4850000000001 193.728 1804.9479999999999 135.76100000000002 1756.93 77.20800000000003 1682.937 43.31400000000002 1608.071 31.942000000000007 1538.104 21.31400000000002 1472.075 53.74400000000003 1404.554 74.94 1338.374 95.714 1271.244 111.57400000000001 1216.935 154.723 1154.695 204.173 1078.1390000000001 259.26 1072.742 338.57 1067.326 418.169 1143.792 476.698 1190.6309999999999 541.284 1228.513 593.519 1264.5140000000001 647.1759999999999 1320.195 679.781 1374.45 711.5509999999999 1438.354 710.082 1500 722.4390000000001" fill="#025571"></path></g><defs><mask id="SvgjsMask1025"><rect width="1500" height="400" fill="#ffffff"></rect></mask></defs></svg>